<?xml version="1.0" standalone="no"?>
<!DOCTYPE svg PUBLIC "-//W3C//DTD SVG 20010904//EN"
 "http://www.w3.org/TR/2001/REC-SVG-20010904/DTD/svg10.dtd">
<svg version="1.0" xmlns="http://www.w3.org/2000/svg"
 width="280.000000pt" height="280.000000pt" viewBox="0 0 280.000000 280.000000"
 preserveAspectRatio="xMidYMid meet">
<metadata>
Created by potrace 1.11, written by Peter Selinger 2001-2013
</metadata>
<g transform="translate(0.000000,280.000000) scale(0.100000,-0.100000)"
fill="#000000" stroke="none">
<path d="M1250 2765 c-8 -2 -49 -9 -90 -15 -190 -30 -431 -134 -592 -255 -285
-214 -472 -522 -534 -880 -24 -137 -14 -396 20 -532 67 -267 194 -485 393
-673 193 -183 420 -300 688 -356 124 -26 402 -26 528 -1 414 83 774 351 966
716 103 198 153 402 153 631 0 365 -130 684 -385 947 -194 199 -417 326 -687
390 -84 20 -139 25 -275 28 -93 2 -177 2 -185 0z m-85 -1312 c126 -348 232
-633 235 -633 3 0 109 285 236 633 l231 632 133 3 c123 2 132 1 125 -15 -4
-10 -131 -354 -282 -765 l-276 -748 -167 0 -166 0 -259 703 c-142 386 -269
730 -282 765 l-23 63 132 -3 132 -3 231 -632z"/>
</g>
</svg>
